<?xml version="1.0" encoding="UTF-8" standalone="no"?>
<svg version="1.0" width="512pt" height="512pt" viewBox="0 0 512 512" preserveAspectRatio="xMidYMid"
   xmlns="http://www.w3.org/2000/svg" xmlns:svg="http://www.w3.org/2000/svg">
   <style>
      #bg {
        fill: #d4aa00
      }

      #fg {
        fill: #1a1a1a;
      }

      @media (prefers-color-scheme: dark) {
        #fg {
            fill: #F9F9F9;
        }
      }
   </style>
   <g id="bg">
      <circle cx="256" cy="256" r="192" />
   </g>
   <g id="fg">
      <path
        d="M7.784 143.193c-1.746 3.201-.485 14.841 2.328 23.086 3.298 9.409 9.603 18.43 18.915 27.354 18.527 17.75 31.622 24.638 56.454 29.973 8.73 1.94 13.191 2.23 31.04 2.23 22.406.098 22.503.098 51.215-6.79 20.467-4.85 23.085-4.558 23.958 3.105.68 5.044 4.85 13.482 7.954 15.907 1.552 1.261 3.977 1.94 6.5 1.94 2.91 0 5.043.776 7.468 2.522 5.044 3.88 11.058 6.305 20.08 8.051 4.946.97 8.535 2.231 9.02 3.007.388.776 1.164 3.88 1.746 6.79 4.074 20.37 3.88 35.696-.776 49.276-3.395 9.894-3.783 14.744-1.358 16.878.97.873 5.432 2.716 9.797 4.17 5.82 1.844 9.506 3.783 12.804 6.693 2.522 2.134 7.76 6.693 11.737 9.991 3.977 3.298 10.864 9.797 15.326 14.356 8.438 8.536 10.863 9.894 15.422 8.827 3.104-.776 3.395-.776 8.342 0 3.977.68 5.432-.388 5.432-3.977 0-1.746.582-1.94 6.79-1.649 6.596.388 6.693.291 7.372-2.328 1.552-6.014-5.335-19.69-12.222-24.25-2.23-1.455-10.767-4.946-19.109-7.76-32.688-11.154-37.15-19.496-24.928-47.626l4.656-10.864 1.649 3.783c.97 2.037 2.522 4.171 3.589 4.753 3.395 1.843 11.251 1.164 18.235-1.455 11.252-4.17 15.326-8.439 16.49-17.266 1.067-7.275 3.201-9.603 13.968-15.132 5.335-2.813 12.125-7.178 15.035-9.894 4.559-4.17 10.379-11.64 11.446-14.646.194-.68 1.843-.291 4.656 1.067 2.328 1.067 6.208 2.522 8.633 3.007 2.425.582 6.596 1.843 9.215 2.813 6.499 2.521 15.81 3.394 18.623 1.842 3.007-1.648 7.081-7.468 7.081-9.99 0-1.164-1.552-4.074-3.395-6.402-1.843-2.328-5.238-6.984-7.663-10.476-4.559-6.693-7.468-9.7-11.057-11.543-3.686-1.94-5.044-5.335-6.596-16.684-.776-6.11-1.843-12.707-2.425-14.744-1.067-3.977-3.88-7.469-6.111-7.469-1.843 0-5.432 5.044-5.432 7.47 0 1.066-.291 2.133-.582 2.521-.485.485-7.76-3.686-14.162-8.148-6.111-4.268-8.439-.97-5.529 7.954 3.395 10.282 8.342 19.109 12.028 21.437 4.17 2.716 4.268 3.686.582 3.686-3.104 0-13.677 5.14-18.721 9.02l-3.007 2.426-4.074-4.074c-3.88-3.977-8.245-6.208-16.49-8.245-2.328-.582-8.439-4.365-15.035-9.312-14.646-10.864-23.473-15.326-36.471-18.624-8.633-2.134-12.707-2.619-22.213-2.619-11.252 0-12.028.194-23.28 4.171-9.603 3.395-20.176 8.342-50.924 23.959-13.483 6.79-33.077 14.356-48.015 18.43-22.504 6.208-47.044 3.395-69.645-7.954-12.61-6.305-19.594-11.35-29.003-20.952-10.864-11.058-14.356-17.75-14.356-27.16 0-6.693-.97-8.245-3.007-4.462z"/>
   </g>
</svg>
