<?xml version="1.0" encoding="UTF-8" standalone="no"?>
<svg
   version="1.0"
   width="512pt"
   height="512pt"
   viewBox="0 0 512 512"
   preserveAspectRatio="xMidYMid"
   id="svg1"
   sodipodi:docname="icon-light.svg"
   inkscape:version="1.4 (e7c3feb100, 2024-10-09)"
   xmlns:inkscape="http://www.inkscape.org/namespaces/inkscape"
   xmlns:sodipodi="http://sodipodi.sourceforge.net/DTD/sodipodi-0.dtd"
   xmlns="http://www.w3.org/2000/svg"
   xmlns:svg="http://www.w3.org/2000/svg">
  <defs
     id="defs1">
    <filter
       style="color-interpolation-filters:sRGB;"
       inkscape:label="Drop Shadow"
       id="filter38"
       x="-0.017227968"
       y="-0.036738951"
       width="1.0344559"
       height="1.0671436">
      <feFlood
         result="flood"
         in="SourceGraphic"
         flood-opacity="1.000000"
         flood-color="rgb(110,95,98)"
         id="feFlood37" />
      <feGaussianBlur
         result="blur"
         in="SourceGraphic"
         stdDeviation="30.000000"
         id="feGaussianBlur37" />
      <feOffset
         result="offset"
         in="blur"
         dx="0.000000"
         dy="-15.000000"
         id="feOffset37" />
      <feComposite
         result="comp1"
         operator="in"
         in="flood"
         in2="offset"
         id="feComposite37" />
      <feComposite
         result="comp2"
         operator="over"
         in="SourceGraphic"
         in2="comp1"
         id="feComposite38" />
    </filter>
  </defs>
  <sodipodi:namedview
     id="namedview1"
     pagecolor="#e5e6ec"
     bordercolor="#ffffff"
     borderopacity="1"
     inkscape:showpageshadow="0"
     inkscape:pageopacity="0"
     inkscape:pagecheckerboard="false"
     inkscape:deskcolor="#505050"
     inkscape:document-units="pt"
     inkscape:zoom="1.0975136"
     inkscape:cx="114.34938"
     inkscape:cy="293.84602"
     inkscape:window-width="1920"
     inkscape:window-height="1032"
     inkscape:window-x="0"
     inkscape:window-y="0"
     inkscape:window-maximized="0"
     inkscape:current-layer="layer1" />
  <metadata
     id="metadata1">
Created by potrace 1.13, written by Peter Selinger 2001-2015
</metadata>
  <g
     inkscape:groupmode="layer"
     id="layer2"
     inkscape:label="Background">
    <circle
       style="fill:#d4aa00;stroke-width:0.75;-inkscape-stroke:none;paint-order:stroke fill markers"
       id="path2"
       cx="256"
       cy="256"
       r="185.86206" />
  </g>
  <g
     inkscape:groupmode="layer"
     id="layer1"
     inkscape:label="Foreground">
    <g
       transform="matrix(0.09699906,0,0,-0.09699906,6.9112767,370.94714)"
       fill="#000000"
       stroke="none"
       id="g1"
       style="fill:#1a1a1a">
      <path
         d="m 9,2348 c -18,-33 -5,-153 24,-238 34,-97 99,-190 195,-282 191,-183 326,-254 582,-309 90,-20 136,-23 320,-23 231,-1 232,-1 528,70 211,50 238,47 247,-32 7,-52 50,-139 82,-164 16,-13 41,-20 67,-20 30,0 52,-8 77,-26 52,-40 114,-65 207,-83 51,-10 88,-23 93,-31 4,-8 12,-40 18,-70 42,-210 40,-368 -8,-508 -35,-102 -39,-152 -14,-174 10,-9 56,-28 101,-43 60,-19 98,-39 132,-69 26,-22 80,-69 121,-103 41,-34 112,-101 158,-148 87,-88 112,-102 159,-91 32,8 35,8 86,0 41,-7 56,4 56,41 0,18 6,20 70,17 68,-4 69,-3 76,24 16,62 -55,203 -126,250 -23,15 -111,51 -197,80 -337,115 -383,201 -257,491 l 48,112 17,-39 c 10,-21 26,-43 37,-49 35,-19 116,-12 188,15 116,43 158,87 170,178 11,75 33,99 144,156 55,29 125,74 155,102 47,43 107,120 118,151 2,7 19,3 48,-11 24,-11 64,-26 89,-31 25,-6 68,-19 95,-29 67,-26 163,-35 192,-19 31,17 73,77 73,103 0,12 -16,42 -35,66 -19,24 -54,72 -79,108 -47,69 -77,100 -114,119 -38,20 -52,55 -68,172 -8,63 -19,131 -25,152 -11,41 -40,77 -63,77 -19,0 -56,-52 -56,-77 0,-11 -3,-22 -6,-26 -5,-5 -80,38 -146,84 -63,44 -87,10 -57,-82 35,-106 86,-197 124,-221 43,-28 44,-38 6,-38 -32,0 -141,-53 -193,-93 l -31,-25 -42,42 c -40,41 -85,64 -170,85 -24,6 -87,45 -155,96 -151,112 -242,158 -376,192 -89,22 -131,27 -229,27 -116,0 -124,-2 -240,-43 -99,-35 -208,-86 -525,-247 -139,-70 -341,-148 -495,-190 -232,-64 -485,-35 -718,82 -130,65 -202,117 -299,216 -112,114 -148,183 -148,280 0,69 -10,85 -31,46 z"
         id="path1"
         style="fill:#1a1a1a" />
    </g>
  </g>
</svg>
